<svg xmlns="http://www.w3.org/2000/svg" viewBox="0 0 80 32">
  <path d="M3.8 0h72.4c2.1 0 3.8 1.7 3.8 3.8v24.4c0 2.1-1.7 3.8-3.8 3.8H3.8C1.7 32 0 30.3 0 28.2V3.8C0 1.7 1.7 0 3.8 0z" fill="#fff"/>
  <path d="M27.3 13.7h-4.5v1.4h3.2c-.2 1.8-1.7 2.8-3.2 2.8-1.9 0-3.5-1.5-3.5-3.5s1.6-3.5 3.5-3.5c1.5 0 2.4.9 2.4.9l1-1c-.8-.8-2-1.4-3.4-1.4-2.8 0-5 2.2-5 5s2.2 5 5 5c2.9 0 4.9-2 4.9-5 0-.3 0-.7-.1-1z" fill="#4285f4"/>
  <path d="M35.3 11.3c-2.8 0-5 2.2-5 5s2.2 5 5 5 5-2.2 5-5-2.2-5-5-5zm0 8c-1.9 0-3.5-1.5-3.5-3.5s1.6-3.5 3.5-3.5 3.5 1.5 3.5 3.5-1.6 3.5-3.5 3.5z" fill="#ea4335"/>
  <path d="M44.3 11.3c-2.8 0-5 2.2-5 5s2.2 5 5 5 5-2.2 5-5-2.2-5-5-5zm0 8c-1.9 0-3.5-1.5-3.5-3.5s1.6-3.5 3.5-3.5 3.5 1.5 3.5 3.5-1.6 3.5-3.5 3.5z" fill="#fbbc05"/>
  <path d="M58.3 11.3c-2.8 0-5 2.2-5 5s2.2 5 5 5 5-2.2 5-5-2.2-5-5-5zm0 8c-1.9 0-3.5-1.5-3.5-3.5s1.6-3.5 3.5-3.5 3.5 1.5 3.5 3.5-1.6 3.5-3.5 3.5z" fill="#4285f4"/>
</svg>
